<svg width="120" height="36" viewBox="0 0 120 36" fill="none" xmlns="http://www.w3.org/2000/svg">
  <rect width="120" height="36" rx="8" fill="#1d4ed8"/>
  <path d="M20.8 11.2H26.4L30.4 17.6L34.4 11.2H40L30.4 24.8H26.4L20.8 11.2Z" fill="white"/>
  <path d="M46.4 11.2H63.2V16H52.8V18.4H62.4V23.2H52.8V24.8H63.6V29.6H46.4V11.2Z" fill="white"/>
  <path d="M70.4 11.2H87.2C90.4 11.2 92.8 13.6 92.8 16.4C92.8 19.2 90.4 21.6 87.2 21.6H76V29.6H70.4V11.2ZM76 16.4H84.8C85.6 16.4 86.4 15.6 86.4 14.8C86.4 14 85.6 13.2 84.8 13.2H76V16.4Z" fill="white"/>
  <path d="M99.2 11.2H104.8L113.6 29.6H107.6L106 26.4H98L96.4 29.6H90.4L99.2 11.2ZM102 19.6L100 23.6H104L102 19.6Z" fill="white"/>
</svg>
